<svg xmlns:xlink="http://www.w3.org/1999/xlink" width="64" height="64" viewBox="0 0 512 512" fill="none" xmlns="http://www.w3.org/2000/svg"><circle cx="256" cy="256" r="256" fill="#5BC5FA"></circle><path d="M235.5 81.209C203.5 86.009 183 93.309 159.1 108.109C122.2 131.109 93.5 169.009 81.4 210.409C76 229.009 75 237.209 75 261.509C75 288.009 76.5 299.009 83 318.909C95.8 357.809 120.5 390.309 154.5 413.109C167.5 421.809 185 430.809 189.3 431.009C192.3 431.109 192.5 430.909 196.3 420.609C208.5 388.009 223.8 348.609 228.2 338.309C230.9 331.809 233 326.409 232.9 326.209C232.7 326.109 229.8 324.709 226.5 323.109C217 318.609 207.3 308.309 201.7 296.609C190.1 272.409 188.9 240.109 198.5 209.609C205.4 187.809 221.4 163.709 238.3 149.509L244.5 144.309L245.2 158.209C246.6 188.609 256.8 205.209 281.3 217.009C308 229.809 318 243.709 318 268.109C318 285.009 313.1 299.609 303.8 310.109C299.6 314.909 286.3 324.209 282.3 325.209C279.2 326.009 279.3 326.509 285.9 342.609C290.4 353.309 300.4 379.209 316.2 420.909L320.3 431.809L323.4 431.209C328.4 430.209 346.1 421.009 357.1 413.709C397.5 386.909 426.4 342.909 435 295.609C437.5 281.209 437.9 245.009 435.5 231.709C423.8 164.909 376.6 110.309 312.5 89.409C292.6 82.909 283.3 81.409 259 81.109C247.7 80.909 237.2 81.009 235.5 81.209Z" fill="black"></path></svg>